<?xml version="1.0" standalone="no"?>
<!DOCTYPE svg PUBLIC "-//W3C//DTD SVG 20010904//EN"
 "http://www.w3.org/TR/2001/REC-SVG-20010904/DTD/svg10.dtd">
<svg version="1.0" xmlns="http://www.w3.org/2000/svg"
 width="700.000000pt" height="700.000000pt" viewBox="0 0 700.000000 700.000000"
 preserveAspectRatio="xMidYMid meet">
<metadata>
Created by potrace 1.14, written by Peter Selinger 2001-2017
</metadata>
<g transform="translate(0.000000,700.000000) scale(0.100000,-0.100000)"
fill="#000000" stroke="none">
<path d="M1935 6164 c-8 -13 -27 -45 -42 -71 -59 -107 -511 -891 -538 -934 -5
-9 -18 -32 -29 -50 -10 -19 -93 -162 -184 -319 -191 -330 -376 -650 -404 -700
-11 -19 -87 -150 -168 -290 -81 -140 -152 -265 -159 -277 -10 -20 -7 -31 20
-80 17 -32 35 -62 39 -68 4 -5 21 -35 37 -65 38 -68 264 -464 269 -469 2 -2
157 -4 344 -4 l340 0 -19 -31 c-10 -17 -87 -150 -170 -294 l-151 -264 226
-391 c125 -216 236 -408 247 -427 11 -19 39 -69 62 -110 23 -41 79 -137 124
-214 44 -76 81 -140 81 -142 0 -2 20 -37 45 -77 l45 -74 1550 0 1551 0 68 116
c37 64 119 206 182 316 64 110 220 381 347 602 l232 401 -165 286 c-91 158
-165 291 -165 295 0 8 198 12 568 13 l103 1 23 36 c12 20 98 168 190 329 l168
292 -145 253 c-80 138 -193 335 -252 437 -59 102 -142 246 -185 320 -43 74
-141 243 -217 375 -148 255 -445 769 -635 1100 l-115 200 -1551 1 -1552 1 -15
-23z m3231 -319 c86 -148 206 -358 268 -465 311 -535 596 -1029 614 -1061 11
-20 39 -67 61 -104 23 -37 41 -68 41 -70 0 -2 64 -113 141 -247 78 -133 161
-278 185 -321 l45 -77 -157 -273 c-86 -149 -158 -274 -160 -276 -2 -2 -15 16
-29 40 -57 96 -245 423 -245 425 0 1 -62 110 -138 241 -77 131 -159 274 -184
318 -75 132 -81 143 -193 335 -59 102 -119 205 -133 230 -13 25 -28 50 -32 55
-4 6 -19 30 -32 55 -30 52 -520 903 -525 909 -1 2 -539 4 -1194 4 l-1191 -1
-85 -148 c-48 -82 -102 -176 -120 -209 -19 -33 -42 -73 -52 -90 -22 -35 -768
-1328 -1079 -1870 -188 -326 -171 -301 -186 -279 -7 11 -79 135 -160 276
l-147 258 174 302 c96 167 189 328 206 358 18 30 36 62 42 70 9 15 122 211
164 285 13 22 112 193 220 380 109 187 207 356 218 375 22 40 327 570 422 735
l64 111 1511 -1 1511 0 155 -270z m-677 -562 c-66 -113 -131 -225 -143 -247
-13 -23 -31 -55 -41 -71 l-18 -31 -787 0 -787 -1 -20 36 c-12 20 -84 145 -161
279 l-140 242 1108 0 1108 0 -119 -207z m-1999 -104 c85 -149 154 -277 154
-284 -1 -13 -759 -1332 -776 -1350 -5 -6 -130 -10 -327 -10 -317 0 -319 0
-308 20 8 16 271 472 363 632 25 43 223 385 253 437 13 23 116 201 229 396
113 195 215 372 226 392 12 21 23 38 26 38 3 0 75 -122 160 -271z m2330 19
c80 -138 157 -272 171 -297 14 -25 107 -185 206 -356 99 -170 191 -330 205
-355 14 -25 48 -83 75 -130 139 -238 293 -509 293 -516 0 -5 -140 -9 -317 -9
l-318 0 -338 585 c-185 322 -362 629 -393 682 l-55 96 137 239 c76 131 147
255 158 275 12 21 23 38 26 38 3 0 70 -113 150 -252z m-530 -344 c5 -5 58 -94
118 -199 60 -104 167 -291 239 -415 303 -525 368 -638 396 -688 l29 -54 -119
-205 c-65 -114 -130 -227 -144 -252 -60 -105 -294 -508 -310 -536 -11 -16 -22
-36 -25 -43 -16 -32 -176 -308 -184 -316 -5 -5 -354 -9 -791 -9 l-783 0 -16
23 c-8 13 -28 45 -43 73 -15 27 -86 149 -156 271 -70 122 -199 345 -286 496
-87 151 -187 324 -222 385 -55 93 -63 112 -54 132 6 12 69 125 142 250 227
394 392 681 508 883 62 107 118 200 125 205 16 13 1564 12 1576 -1z m-2477
-1400 c-1 -5 -19 -40 -40 -76 -21 -36 -90 -156 -153 -267 l-115 -200 -323 -1
-324 0 20 33 c24 39 226 390 270 467 l31 55 318 0 c205 -1 317 -4 316 -11z
m4036 -39 c16 -28 86 -149 155 -269 69 -120 126 -222 126 -227 0 -4 -143 -7
-317 -6 l-317 2 -158 270 c-86 149 -157 272 -158 275 0 3 144 5 320 5 l321 -1
28 -49z m-3575 -659 c212 -368 386 -673 386 -677 0 -12 -60 -11 861 -13 l806
-1 394 682 c216 375 394 681 395 680 2 -3 244 -418 266 -457 11 -19 29 -50 40
-68 14 -23 17 -36 10 -45 -8 -9 -212 -359 -276 -472 -32 -56 -208 -362 -217
-375 -5 -8 -71 -123 -147 -255 l-138 -240 -1154 0 -1154 0 -133 230 c-73 127
-139 241 -147 255 -26 49 -488 845 -497 856 -10 12 -9 13 108 214 166 286 208
358 210 357 0 -1 175 -303 387 -671z m-716 -18 c16 -29 86 -150 154 -268 381
-658 477 -825 531 -920 33 -58 62 -107 63 -109 5 -5 2383 -5 2387 0 2 2 49 83
104 179 55 96 140 245 190 330 403 698 486 840 493 840 5 0 24 -28 43 -62 19
-35 89 -157 156 -272 l120 -210 -18 -30 c-17 -28 -201 -346 -256 -441 -12 -22
-32 -56 -43 -75 -210 -368 -466 -806 -473 -811 -5 -3 -687 -5 -1515 -5 l-1506
1 -150 260 c-83 143 -160 278 -173 300 -12 22 -55 96 -95 165 -39 69 -82 143
-95 165 -12 22 -79 138 -148 257 l-126 217 135 233 c75 128 144 250 155 271
11 20 23 37 28 37 5 0 23 -24 39 -52z"/>
</g>
</svg>
